<svg width="742" height="244" viewBox="0 0 742 244" fill="none" xmlns="http://www.w3.org/2000/svg">
<g clip-path="url(#clip0_629_65)">
<path fill-rule="evenodd" clip-rule="evenodd" d="M150.564 53.0018C146.758 52.9528 150.564 53.0018 146.758 52.9528L76.4465 194.034C76.4465 194.034 75.0256 193.916 78.8315 193.965L94.8587 194.171C97.8619 194.21 97.8104 194.122 101.616 194.171L169.595 53.247C169.595 53.247 169.595 53.2472 165.789 53.1981L150.564 53.0018Z" fill="#5171AF" fill-opacity="0.9"/>
<path fill-rule="evenodd" clip-rule="evenodd" d="M28.7536 52.1652C32.5627 52.1346 28.7536 52.1652 32.5627 52.1346L103.672 198.053C103.672 198.053 105.094 197.938 101.285 197.969L85.2446 198.097C82.239 198.122 82.239 198.122 78.4299 198.152L9.70799 52.318C9.70799 52.318 9.7081 52.3182 13.5171 52.2876L28.7536 52.1652Z" fill="#163675" fill-opacity="0.9"/>
</g>
<path d="M296.6 176.6V194H195V54H293.8V71.4H215V114.4H285.2V131.4H215V176.6H296.6ZM428.398 123.2H447.598V177.8C440.665 183.533 432.598 187.933 423.398 191C414.198 194.067 404.598 195.6 394.598 195.6C380.465 195.6 367.732 192.533 356.398 186.4C345.065 180.133 336.132 171.6 329.598 160.8C323.198 149.867 319.998 137.6 319.998 124C319.998 110.4 323.198 98.1333 329.598 87.2C336.132 76.2667 345.065 67.7333 356.398 61.6C367.865 55.4667 380.732 52.4 394.998 52.4C406.198 52.4 416.332 54.2667 425.398 58C434.598 61.6 442.398 66.9333 448.798 74L436.398 86.4C425.198 75.6 411.665 70.2 395.798 70.2C385.132 70.2 375.532 72.5333 366.998 77.2C358.598 81.7333 351.998 88.1333 347.198 96.4C342.398 104.533 339.998 113.733 339.998 124C339.998 134.133 342.398 143.333 347.198 151.6C351.998 159.733 358.598 166.133 366.998 170.8C375.532 175.467 385.065 177.8 395.598 177.8C408.132 177.8 419.065 174.8 428.398 168.8V123.2ZM578.091 159H503.691L488.291 194H467.691L531.091 54H550.891L614.491 194H593.491L578.091 159ZM571.091 143L540.891 74.4L510.691 143H571.091ZM679.175 195.6C668.642 195.6 658.442 194 648.575 190.8C638.842 187.467 631.175 183.2 625.575 178L632.975 162.4C638.308 167.2 645.108 171.133 653.375 174.2C661.775 177.133 670.375 178.6 679.175 178.6C690.775 178.6 699.442 176.667 705.175 172.8C710.908 168.8 713.775 163.533 713.775 157C713.775 152.2 712.175 148.333 708.975 145.4C705.908 142.333 702.042 140 697.375 138.4C692.842 136.8 686.375 135 677.975 133C667.442 130.467 658.908 127.933 652.375 125.4C645.975 122.867 640.442 119 635.775 113.8C631.242 108.467 628.975 101.333 628.975 92.4C628.975 84.9333 630.908 78.2 634.775 72.2C638.775 66.2 644.775 61.4 652.775 57.8C660.775 54.2 670.708 52.4 682.575 52.4C690.842 52.4 698.975 53.4667 706.975 55.6C714.975 57.7333 721.842 60.8 727.575 64.8L720.975 80.8C715.108 77.0667 708.842 74.2667 702.175 72.4C695.508 70.4 688.975 69.4 682.575 69.4C671.242 69.4 662.708 71.4667 656.975 75.6C651.375 79.7333 648.575 85.0667 648.575 91.6C648.575 96.4 650.175 100.333 653.375 103.4C656.575 106.333 660.508 108.667 665.175 110.4C669.975 112 676.442 113.733 684.575 115.6C695.108 118.133 703.575 120.667 709.975 123.2C716.375 125.733 721.842 129.6 726.375 134.8C731.042 140 733.375 147 733.375 155.8C733.375 163.133 731.375 169.867 727.375 176C723.375 182 717.308 186.8 709.175 190.4C701.042 193.867 691.042 195.6 679.175 195.6Z" fill="#163675"/>
<defs>
<clipPath id="clip0_629_65">
<rect width="187" height="146" fill="white" transform="translate(0 48)"/>
</clipPath>
</defs>
</svg>
